<svg width="266" height="100" viewBox="0 0 266 100" fill="none" xmlns="http://www.w3.org/2000/svg">
<path d="M0.826703 26.7107L0.760986 26.6449C0.760986 19.4599 3.06106 13.6769 7.66121 9.29581C12.3052 4.87091 18.4168 2.65846 25.9961 2.65846C31.122 2.65846 35.5469 4.06041 39.2708 6.86431C39.5337 7.12717 39.7965 7.56528 40.0594 8.17863L40.5194 8.0472C40.388 7.52147 40.3223 6.88621 40.3223 6.14143L40.1908 1.34413H40.848L41.5051 20.3362L40.1908 20.4019L39.9937 14.2903C39.8184 11.3987 38.2631 8.92342 35.3278 6.86431C32.3925 4.8052 29.1067 3.77564 25.4703 3.77564C19.5121 3.77564 14.9776 5.6376 11.8671 9.36153C8.75648 13.0855 7.20119 18.4961 7.20119 25.5935C7.20119 33.4356 8.8222 39.4377 12.0642 43.5998C15.35 47.718 20.0816 49.7771 26.2589 49.7771C29.7638 49.7771 33.0058 48.9666 35.985 47.3456C38.9641 45.7246 41.0889 43.556 42.3595 40.8397L43.6081 41.2997C42.2499 44.4541 39.9937 46.8637 36.8393 48.5285C33.6849 50.1933 30.1362 51.0257 26.1932 51.0257C18.6139 51.0257 12.4804 48.7914 7.79264 44.3226C3.14868 39.8539 0.826703 33.9833 0.826703 26.7107Z" fill="white"/>
<path d="M74.4814 51.0257C66.4202 51.0257 59.9362 48.8133 55.0294 44.3884C50.1225 39.9635 47.6691 34.1147 47.6691 26.8421C47.6691 19.6133 50.1225 13.7864 55.0294 9.36153C59.9362 4.93663 66.4202 2.72417 74.4814 2.72417C82.455 2.72417 88.8952 4.93663 93.802 9.36153C98.7089 13.7864 101.162 19.6133 101.162 26.8421C101.162 34.1147 98.7089 39.9635 93.802 44.3884C88.8952 48.8133 82.455 51.0257 74.4814 51.0257ZM74.7443 49.8428C81.2721 49.8428 86.2446 47.9809 89.6619 44.2569C93.123 40.533 94.8535 35.1443 94.8535 28.0907C94.8535 20.2485 93.0792 14.2684 89.5305 10.1501C86.0256 5.98809 80.9216 3.90707 74.2186 3.90707C67.6469 3.90707 62.6306 5.76903 59.1695 9.49296C55.7084 13.2169 53.9779 18.6056 53.9779 25.6592C53.9779 33.5013 55.7522 39.5034 59.3009 43.6655C62.8496 47.7837 67.9974 49.8428 74.7443 49.8428Z" fill="white"/>
<path d="M115.478 4.49852V4.8271C116.266 5.79094 116.661 7.14908 116.661 8.90152V30.9165H120.735C125.291 30.9165 128.752 29.7993 131.118 27.565C133.528 25.2868 134.733 22.001 134.733 17.7075C134.733 13.414 133.528 10.1501 131.118 7.91577C128.752 5.6376 125.291 4.49852 120.735 4.49852H115.478ZM104.7 50.5V49.9085H107.197C108.95 49.9085 110.023 49.7333 110.417 49.3828C110.856 48.9885 111.075 48.0028 111.075 46.4256V7.32432C111.075 5.74713 110.856 4.78329 110.417 4.4328C110.023 4.0385 108.95 3.84135 107.197 3.84135H104.7V3.24991H122.904C128.336 3.24991 132.717 4.58614 136.047 7.25861C139.377 9.88726 141.041 13.3702 141.041 17.7075C141.041 22.001 139.377 25.4839 136.047 28.1564C132.717 30.7851 128.336 32.0994 122.904 32.0994H116.661V46.4256C116.661 48.0028 116.88 48.9885 117.318 49.3828C117.756 49.7333 118.851 49.9085 120.604 49.9085H122.378V50.5H104.7Z" fill="white"/>
<path d="M155.01 4.49852V4.8271C155.799 5.79094 156.193 7.14908 156.193 8.90152V30.9165H160.267C164.824 30.9165 168.285 29.7993 170.651 27.565C173.06 25.2868 174.265 22.001 174.265 17.7075C174.265 13.414 173.06 10.1501 170.651 7.91577C168.285 5.6376 164.824 4.49852 160.267 4.49852H155.01ZM144.233 50.5V49.9085H146.73C148.482 49.9085 149.556 49.7333 149.95 49.3828C150.388 48.9885 150.607 48.0028 150.607 46.4256V7.32432C150.607 5.74713 150.388 4.78329 149.95 4.4328C149.556 4.0385 148.482 3.84135 146.73 3.84135H144.233V3.24991H162.436C167.869 3.24991 172.25 4.58614 175.579 7.25861C178.909 9.88726 180.574 13.3702 180.574 17.7075C180.574 22.001 178.909 25.4839 175.579 28.1564C172.25 30.7851 167.869 32.0994 162.436 32.0994H156.193V46.4256C156.193 48.0028 156.412 48.9885 156.85 49.3828C157.288 49.7333 158.384 49.9085 160.136 49.9085H161.91V50.5H144.233Z" fill="white"/>
<path d="M207.094 36.9624H206.437V33.348C206.437 30.5003 205.758 28.6164 204.4 27.6964C203.042 26.7764 201.114 26.3164 198.617 26.3164H195.726V45.8341C195.726 47.1484 195.2 48.2875 194.148 49.2514V49.3171H208.54C212.045 49.3171 214.652 48.638 216.361 47.2799C218.069 45.8779 219.055 43.5998 219.318 40.4454L219.778 35.1881H220.895L219.646 52.9972L219.055 52.9315L219.252 49.9085H219.186C218.748 50.3028 217.85 50.5 216.492 50.5H183.765V49.9085H186.262C188.015 49.9085 189.088 49.7333 189.483 49.3828C189.921 48.9885 190.14 48.0028 190.14 46.4256V7.32432C190.14 5.74713 189.921 4.78329 189.483 4.4328C189.088 4.0385 188.015 3.84135 186.262 3.84135H183.765V3.24991H212.615C213.973 3.24991 214.849 3.44706 215.243 3.84135H215.375L215.112 0.818401L215.769 0.752686L217.083 18.5618H215.769L215.506 13.9617C215.287 10.5006 214.258 8.0472 212.418 6.60144C210.621 5.15568 207.927 4.4328 204.334 4.4328H194.148V4.49852C195.2 5.46236 195.726 6.60144 195.726 7.91577V25.1335H198.617C201.114 25.1335 203.042 24.6954 204.4 23.8191C205.758 22.8991 206.437 21.0152 206.437 18.1675V15.8675H207.094V36.9624Z" fill="white"/>
<path d="M223.683 50.5L223.617 49.9743H226.114C227.867 49.9743 228.94 49.799 229.334 49.4485C229.772 49.0542 229.992 48.0685 229.992 46.4913V7.39004C229.992 5.81285 229.772 4.84901 229.334 4.49852C228.94 4.10422 227.867 3.90707 226.114 3.90707H223.617V3.31562H242.478C248.261 3.31562 252.905 4.65186 256.41 7.32432C259.914 9.99679 261.667 13.5236 261.667 17.9047C261.667 21.8476 260.221 25.1116 257.33 27.6964C254.438 30.2812 250.78 31.7489 246.355 32.0994L244.909 32.1651V32.5594C248.414 32.9099 251.086 34.4214 252.927 37.0938L256.541 42.2854C256.672 42.4607 256.935 42.855 257.33 43.4683C257.768 44.0817 258.096 44.5417 258.315 44.8484C258.534 45.1112 258.841 45.5055 259.235 46.0313C259.673 46.557 260.024 46.9732 260.287 47.2799C260.593 47.5427 260.944 47.8494 261.338 48.1999C261.733 48.5066 262.127 48.7256 262.521 48.8571C262.915 48.9885 263.31 49.0542 263.704 49.0542C264.361 49.0542 265.062 48.7914 265.807 48.2656L267.384 47.017L267.778 47.477L266.201 48.7256C263.967 50.3905 261.952 51.2229 260.155 51.2229C259.016 51.2229 257.877 50.8505 256.738 50.1057C255.643 49.3609 254.767 48.6161 254.109 47.8713C253.496 47.0827 252.707 45.9875 251.744 44.5855L246.683 37.4881C245.325 35.6043 244.164 34.2899 243.201 33.5452C242.237 32.8004 241.01 32.428 239.52 32.428H238.666V31.3108H241.952C246.333 31.3108 249.685 30.1717 252.007 27.8935C254.329 25.5716 255.489 22.22 255.489 17.8389C255.489 13.4579 254.329 10.1282 252.007 7.85005C249.728 5.57189 246.377 4.4328 241.952 4.4328H234.46V4.49852C235.249 5.2433 235.643 6.38239 235.643 7.91577V46.4256C235.643 48.0028 235.862 48.9885 236.3 49.3828C236.738 49.7333 237.834 49.9085 239.586 49.9085H243.792V50.5H223.683Z" fill="white"/>
<path d="M148.978 53.8991V54.2277C149.766 55.1915 150.16 56.5497 150.16 58.3021V80.3171H154.235C158.791 80.3171 162.252 79.1999 164.618 76.9656C167.028 74.6874 168.233 71.4016 168.233 67.1081C168.233 62.8146 167.028 59.5507 164.618 57.3164C162.252 55.0382 158.791 53.8991 154.235 53.8991H148.978ZM138.2 99.9006V99.3091H140.697C142.45 99.3091 143.523 99.1339 143.917 98.7834C144.356 98.3891 144.575 97.4033 144.575 95.8262V56.7249C144.575 55.1477 144.356 54.1839 143.917 53.8334C143.523 53.4391 142.45 53.2419 140.697 53.2419H138.2V52.6505H156.404C161.836 52.6505 166.217 53.9867 169.547 56.6592C172.876 59.2878 174.541 62.7708 174.541 67.1081C174.541 71.4016 172.876 74.8845 169.547 77.557C166.217 80.1857 161.836 81.5 156.404 81.5H150.16V95.8262C150.16 97.4033 150.38 98.3891 150.818 98.7834C151.256 99.1339 152.351 99.3091 154.103 99.3091H155.878V99.9006H138.2Z" fill="white"/>
<path d="M243.646 91.8832C237.118 91.8832 231.861 90.065 227.874 86.4287C223.887 82.7924 221.894 77.9732 221.894 71.9711C221.894 66.0128 223.887 61.2155 227.874 57.5792C231.861 53.9429 237.118 52.1248 243.646 52.1248C250.13 52.1248 255.344 53.9429 259.287 57.5792C263.273 61.2155 265.267 66.0128 265.267 71.9711C265.267 77.9294 263.273 82.7486 259.287 86.4287C255.344 90.065 250.13 91.8832 243.646 91.8832ZM243.843 90.7003C248.75 90.7003 252.474 89.2107 255.015 86.2316C257.6 83.2524 258.892 78.9151 258.892 73.2197C258.892 66.7795 257.556 61.8508 254.884 58.4335C252.211 55.0163 248.356 53.3077 243.318 53.3077C238.411 53.3077 234.665 54.7972 232.08 57.7764C229.495 60.7555 228.203 65.0928 228.203 70.7882C228.203 77.2722 229.539 82.2229 232.212 85.6401C234.884 89.0136 238.761 90.7003 243.843 90.7003ZM177.667 99.9006L177.798 99.3748H180.296C182.048 99.3748 183.121 99.1996 183.516 98.8491C183.954 98.4548 184.173 97.4691 184.173 95.8919V56.7906C184.173 55.2134 183.954 54.2496 183.516 53.8991C183.121 53.5048 182.048 53.3077 180.296 53.3077H177.798V52.7162H196.659C202.442 52.7162 207.086 54.0524 210.591 56.7249C214.14 59.3974 215.914 62.9242 215.914 67.3052C215.914 71.2482 214.446 74.5121 211.511 77.097C208.619 79.6818 204.961 81.1495 200.536 81.5L199.09 81.5657V81.96C201.588 82.1791 204.173 83.6686 206.845 86.4287C216.659 96.1985 227.48 101.083 239.309 101.083C244.391 101.083 249.013 100.251 253.175 98.5862C257.337 96.9214 260.448 95.2785 262.507 93.6575L264.084 92.4089L264.478 92.8689L262.901 94.1175C259.528 96.79 255.453 98.9367 250.678 100.558C245.902 102.179 240.93 102.989 235.76 102.989C229.846 102.989 223.975 101.85 218.148 99.572C212.365 97.25 207.108 93.6137 202.376 88.6631C202.026 88.3126 201.369 87.6335 200.405 86.6259C199.485 85.6182 198.849 84.961 198.499 84.6544C198.149 84.3039 197.623 83.8439 196.922 83.2743C196.265 82.7048 195.673 82.3324 195.147 82.1572C194.622 81.9381 194.074 81.8286 193.505 81.8286H192.585V80.7114H195.936C199.967 80.7114 203.231 79.4847 205.728 77.0313C208.225 74.5341 209.474 71.2701 209.474 67.2395C209.474 63.2527 208.225 60.0326 205.728 57.5792C203.231 55.082 199.967 53.8334 195.936 53.8334H188.444V53.8991C189.233 54.6439 189.627 55.783 189.627 57.3164V95.8262C189.627 97.4033 189.846 98.3891 190.284 98.7834C190.723 99.1339 191.818 99.3091 193.57 99.3091H197.71V99.9006H177.667Z" fill="white"/>
</svg>
