<svg width="60" height="56" viewBox="0 0 60 56" fill="none" xmlns="http://www.w3.org/2000/svg">
<g clip-path="url(#clip0_10537_2192)">
<path d="M49.1318 27.2069C49.9191 26.4396 50.197 25.3134 49.8574 24.2666C49.517 23.2197 48.6304 22.4724 47.5411 22.3138L37.8558 20.9065C37.4433 20.8465 37.0869 20.5878 36.9027 20.2137L32.5727 11.4376C32.0865 10.4516 31.0997 9.83887 30 9.83887C28.9011 9.83887 27.9143 10.4516 27.4281 11.4376L23.0973 20.2137C22.9131 20.5878 22.5559 20.8465 22.1434 20.9065L12.4582 22.3146C11.3696 22.4724 10.483 23.2197 10.1426 24.2666C9.80297 25.3134 10.0809 26.4396 10.8682 27.2069L17.8759 34.0375C18.1746 34.3291 18.3116 34.7488 18.2411 35.1589L16.5871 44.8048C16.4013 45.8885 16.8378 46.9626 17.7277 47.6098C18.6167 48.2578 19.7741 48.3419 20.7489 47.8285L29.4105 43.2742C29.7797 43.0804 30.2203 43.0804 30.5895 43.2742L39.2519 47.8285C39.6748 48.0511 40.133 48.1609 40.5887 48.1609C41.1806 48.1609 41.7701 47.9758 42.2731 47.6098C43.163 46.9626 43.5995 45.8885 43.4137 44.8048L41.7589 35.1597C41.6884 34.7488 41.8254 34.3299 42.1242 34.0383L49.1318 27.2069ZM40.181 35.4304L41.835 45.0756C41.9183 45.5609 41.7301 46.0247 41.3312 46.3146C40.9315 46.6038 40.4341 46.639 39.9976 46.4116L31.3352 41.8565C30.9179 41.6378 30.4582 41.5273 30 41.5273C29.5419 41.5273 29.0829 41.6378 28.6648 41.8573L20.004 46.4116C19.5659 46.639 19.0685 46.6038 18.6696 46.3146C18.2707 46.0247 18.0833 45.5617 18.1658 45.0756L19.8198 35.4304C19.9792 34.4997 19.6708 33.5497 18.9948 32.8913L11.9864 26.0599C11.6332 25.7155 11.513 25.2301 11.666 24.7616C11.8182 24.2922 12.2002 23.9702 12.688 23.8989L22.3725 22.4917C23.3072 22.3563 24.1153 21.77 24.5326 20.9226L28.8634 12.1464C29.0813 11.7043 29.5066 11.4408 29.9992 11.4408C30.4926 11.4408 30.9171 11.7043 31.1358 12.1464L35.4666 20.9226C35.8839 21.77 36.6912 22.3563 37.626 22.4917L47.3112 23.8989C47.799 23.9702 48.181 24.2922 48.3332 24.7616C48.4854 25.2301 48.366 25.7155 48.0128 26.0599L41.0052 32.8905C40.3292 33.5497 40.0208 34.4989 40.181 35.4304Z" fill="white"/>
</g>
<path d="M13.0518 36.3154L9.01037 38.6487C8.45236 38.9709 7.77615 38.8443 7.5 38.366C7.22386 37.8877 7.45236 37.2388 8.01037 36.9167L12.0518 34.5833C12.6098 34.2612 13.286 34.3877 13.5622 34.866C13.8383 35.3443 13.6098 35.9932 13.0518 36.3154Z" fill="white"/>
<path d="M42.2719 16.6987L45.3573 13.1976C45.7833 12.7142 45.7928 12.0263 45.3785 11.6612C44.9641 11.296 44.2829 11.3919 43.8569 11.8753L40.7714 15.3764C40.3454 15.8598 40.3359 16.5476 40.7502 16.9128C41.1646 17.278 41.8458 17.1821 42.2719 16.6987Z" fill="white"/>
<path d="M46.5436 37.9863L50.5851 40.3196C51.1431 40.6418 51.8193 40.5152 52.0954 40.0369C52.3716 39.5586 52.1431 38.9097 51.5851 38.5876L47.5436 36.2542C46.9856 35.9321 46.3094 36.0586 46.0333 36.5369C45.7571 37.0152 45.9856 37.6641 46.5436 37.9863Z" fill="white"/>
<path d="M17.8568 16.6987L14.7714 13.1976C14.3454 12.7142 14.3359 12.0263 14.7502 11.6612C15.1646 11.296 15.8458 11.3919 16.2718 11.8753L19.3573 15.3764C19.7833 15.8598 19.7928 16.5476 19.3785 16.9128C18.9641 17.278 18.2829 17.1821 17.8568 16.6987Z" fill="white"/>
<path d="M31 5.83333V1.16667C31 0.522334 30.5523 0 30 0C29.4477 0 29 0.522334 29 1.16667V5.83333C29 6.47767 29.4477 7 30 7C30.5523 7 31 6.47767 31 5.83333Z" fill="white"/>
<path d="M11.2391 53.539L14.539 50.2392C14.9946 49.7836 15.0473 49.0976 14.6568 48.7071C14.2663 48.3166 13.5804 48.3693 13.1248 48.825L9.82492 52.1248C9.36931 52.5804 9.31655 53.2663 9.70707 53.6569C10.0976 54.0474 10.7835 53.9946 11.2391 53.539Z" fill="white"/>
<path d="M44.825 51.2391L48.1248 54.539C48.5805 54.9946 49.2664 55.0473 49.6569 54.6568C50.0474 54.2663 49.9947 53.5804 49.5391 53.1247L46.2392 49.8249C45.7836 49.3693 45.0977 49.3165 44.7072 49.7071C44.3166 50.0976 44.3694 50.7835 44.825 51.2391Z" fill="white"/>
<path d="M54.0103 23.6487L58.0518 21.3154C58.6098 20.9932 58.8383 20.3443 58.5621 19.866C58.286 19.3877 57.6098 19.2612 57.0518 19.5833L53.0103 21.9167C52.4523 22.2388 52.2238 22.8877 52.5 23.366C52.7761 23.8443 53.4523 23.9709 54.0103 23.6487Z" fill="white"/>
<path d="M1.12685 23.2336L5.63451 24.4414C6.25688 24.6082 6.8773 24.3109 7.02024 23.7774C7.16318 23.244 6.77452 22.6763 6.15214 22.5096L1.64449 21.3017C1.02211 21.135 0.401699 21.4322 0.258757 21.9657C0.115815 22.4992 0.504474 23.0668 1.12685 23.2336Z" fill="white"/>
<path d="M31 52.8333V48.1667C31 47.5223 30.5523 47 30 47C29.4477 47 29 47.5223 29 48.1667V52.8333C29 53.4777 29.4477 54 30 54C30.5523 54 31 53.4777 31 52.8333Z" fill="white"/>
<defs>
<clipPath id="clip0_10537_2192">
<rect width="40" height="40" fill="white" transform="translate(10 9)"/>
</clipPath>
</defs>
</svg>
