<svg width="21" height="22" viewBox="0 0 21 22" fill="none" xmlns="http://www.w3.org/2000/svg">
<g clip-path="url(#clip0_10525_2153)">
<path fill-rule="evenodd" clip-rule="evenodd" d="M11.9443 2.59253C12.7506 2.0614 13.6702 1.77326 14.6104 1.7572C16.109 1.82869 17.521 2.54852 18.5379 3.75942C19.5547 4.97031 20.0937 6.57385 20.0371 8.2197C20.0371 12.3878 16.0414 16.94 12.6901 20.0264C11.9419 20.7167 10.9958 21.0952 10.0185 21.0952C9.04109 21.0952 8.09505 20.7167 7.34681 20.0264C3.99555 16.94 -0.00023067 12.3878 -0.00023067 8.2197C-0.0567949 6.57385 0.482219 4.97031 1.49905 3.75942C2.51588 2.54852 3.92788 1.82869 5.42656 1.7572C6.36669 1.77326 7.28631 2.0614 8.09256 2.59253C8.89881 3.12367 9.56314 3.87898 10.0185 4.7822C10.4738 3.87898 11.1381 3.12367 11.9443 2.59253Z" fill="url(#paint0_linear_10525_2153)"/>
</g>
<defs>
<linearGradient id="paint0_linear_10525_2153" x1="5.05789" y1="-3.22131" x2="19.9425" y2="-2.62805" gradientUnits="userSpaceOnUse">
<stop stop-color="#5E3928"/>
<stop offset="0.911458" stop-color="#E4A16F"/>
</linearGradient>
<clipPath id="clip0_10525_2153">
<rect width="21" height="22" fill="white"/>
</clipPath>
</defs>
</svg>
