<svg width="21" height="19" viewBox="0 0 21 19" fill="none" xmlns="http://www.w3.org/2000/svg">
<path d="M15.581 0.597504C14.6426 0.612099 13.7247 0.874048 12.92 1.3569C12.1152 1.83974 11.4522 2.52639 10.9977 3.3475C10.5432 2.52639 9.88013 1.83974 9.07538 1.3569C8.27064 0.874048 7.35273 0.612099 6.41435 0.597504C4.91847 0.662496 3.50911 1.31688 2.49417 2.4177C1.47924 3.51851 0.941228 4.97627 0.997687 6.4725C0.997687 10.2617 4.98602 14.4 8.33102 17.2058C9.07787 17.8334 10.0221 18.1775 10.9977 18.1775C11.9732 18.1775 12.9175 17.8334 13.6644 17.2058C17.0094 14.4 20.9977 10.2617 20.9977 6.4725C21.0541 4.97627 20.5161 3.51851 19.5012 2.4177C18.4863 1.31688 17.0769 0.662496 15.581 0.597504ZM12.5935 15.9308C12.1468 16.307 11.5816 16.5133 10.9977 16.5133C10.4137 16.5133 9.84853 16.307 9.40185 15.9308C5.12019 12.3383 2.66435 8.89167 2.66435 6.4725C2.60739 5.4181 2.96966 4.38395 3.67216 3.59559C4.37465 2.80723 5.36038 2.32863 6.41435 2.26417C7.46832 2.32863 8.45405 2.80723 9.15655 3.59559C9.85905 4.38395 10.2213 5.4181 10.1644 6.4725C10.1644 6.69352 10.2521 6.90548 10.4084 7.06176C10.5647 7.21804 10.7767 7.30584 10.9977 7.30584C11.2187 7.30584 11.4307 7.21804 11.5869 7.06176C11.7432 6.90548 11.831 6.69352 11.831 6.4725C11.7741 5.4181 12.1363 4.38395 12.8388 3.59559C13.5413 2.80723 14.527 2.32863 15.581 2.26417C16.635 2.32863 17.6207 2.80723 18.3232 3.59559C19.0257 4.38395 19.388 5.4181 19.331 6.4725C19.331 8.89167 16.8752 12.3383 12.5935 15.9275V15.9308Z" fill="#0B3F37"/>
</svg>
