<svg width="21" height="21" viewBox="0 0 21 21" fill="none" xmlns="http://www.w3.org/2000/svg">
<g clip-path="url(#clip0_96_30703)">
<path d="M19.4723 3.48469C19.2389 3.20453 18.9466 2.97921 18.6163 2.82473C18.2859 2.67025 17.9256 2.5904 17.561 2.59084H4.14244L4.10758 2.29953C4.03625 1.69402 3.74522 1.13573 3.28967 0.730506C2.83412 0.325283 2.24571 0.101297 1.63602 0.101013L1.45177 0.101013C1.23165 0.101013 1.02056 0.188453 0.864911 0.344098C0.709266 0.499742 0.621826 0.710841 0.621826 0.930956C0.621826 1.15107 0.709266 1.36217 0.864911 1.51781C1.02056 1.67346 1.23165 1.7609 1.45177 1.7609H1.63602C1.8393 1.76093 2.0355 1.83556 2.18741 1.97064C2.33931 2.10572 2.43636 2.29185 2.46015 2.49374L3.60215 12.2041C3.72071 13.2139 4.20591 14.1451 4.96567 14.8209C5.72542 15.4966 6.70684 15.8699 7.72364 15.8699H16.3907C16.6108 15.8699 16.8219 15.7825 16.9776 15.6268C17.1332 15.4712 17.2207 15.2601 17.2207 15.04C17.2207 14.8199 17.1332 14.6088 16.9776 14.4531C16.8219 14.2975 16.6108 14.21 16.3907 14.21H7.72364C7.20996 14.2086 6.70929 14.0483 6.29028 13.7511C5.87127 13.454 5.55443 13.0345 5.38321 12.5502H15.2761C16.2491 12.5502 17.1911 12.2084 17.9376 11.5845C18.6841 10.9605 19.1877 10.0941 19.3603 9.1366L20.0118 5.52303C20.0768 5.1645 20.0622 4.79605 19.969 4.4438C19.8757 4.09155 19.7062 3.76411 19.4723 3.48469ZM18.3826 5.2284L17.7303 8.84197C17.6266 9.41712 17.324 9.93749 16.8753 10.312C16.4266 10.6864 15.8605 10.8912 15.2761 10.8903H5.11928L4.33831 4.25073H17.561C17.6829 4.25 17.8034 4.27614 17.9141 4.32729C18.0248 4.37845 18.1228 4.45335 18.2013 4.54669C18.2797 4.64003 18.3366 4.7495 18.368 4.86732C18.3993 4.98514 18.4043 5.10843 18.3826 5.2284Z" fill="black"/>
<path d="M6.43137 20.0196C7.3481 20.0196 8.09125 19.2765 8.09125 18.3597C8.09125 17.443 7.3481 16.6999 6.43137 16.6999C5.51464 16.6999 4.77148 17.443 4.77148 18.3597C4.77148 19.2765 5.51464 20.0196 6.43137 20.0196Z" fill="black"/>
<path d="M14.7309 20.0196C15.6477 20.0196 16.3908 19.2765 16.3908 18.3597C16.3908 17.443 15.6477 16.6999 14.7309 16.6999C13.8142 16.6999 13.071 17.443 13.071 18.3597C13.071 19.2765 13.8142 20.0196 14.7309 20.0196Z" fill="black"/>
</g>
<defs>
<clipPath id="clip0_96_30703">
<rect width="19.9186" height="19.9186" fill="white" transform="translate(0.621826 0.101013)"/>
</clipPath>
</defs>
</svg>
