<svg width="18" height="55" viewBox="0 0 18 55" fill="none" xmlns="http://www.w3.org/2000/svg">
<g clip-path="url(#clip0_10502_2592)">
<path d="M9.75 39.25V37.75C9.75 37.5511 9.67098 37.3603 9.53033 37.2197C9.38967 37.079 9.19891 37 9 37C8.80108 37 8.61032 37.079 8.46967 37.2197C8.32901 37.3603 8.25 37.5511 8.25 37.75V39.25C6.8581 39.2516 5.52366 39.8052 4.53944 40.7894C3.55522 41.7737 3.00159 43.1081 3 44.5V49C3 50.5913 3.63214 52.1174 4.75736 53.2426C5.88258 54.3679 7.4087 55 9 55C10.5913 55 12.1174 54.3679 13.2426 53.2426C14.3679 52.1174 15 50.5913 15 49V44.5C14.9984 43.1081 14.4448 41.7737 13.4606 40.7894C12.4763 39.8052 11.1419 39.2516 9.75 39.25ZM13.5 49C13.5 50.1935 13.0259 51.3381 12.182 52.182C11.3381 53.0259 10.1935 53.5 9 53.5C7.80652 53.5 6.66193 53.0259 5.81802 52.182C4.9741 51.3381 4.5 50.1935 4.5 49V44.5C4.50119 43.5058 4.89666 42.5527 5.59966 41.8497C6.30267 41.1467 7.2558 40.7512 8.25 40.75H9.75C10.7442 40.7512 11.6973 41.1467 12.4003 41.8497C13.1033 42.5527 13.4988 43.5058 13.5 44.5V49Z" fill="white"/>
<path d="M9 42.25C8.80109 42.25 8.61032 42.329 8.46967 42.4697C8.32902 42.6103 8.25 42.8011 8.25 43V44.5C8.25 44.6989 8.32902 44.8897 8.46967 45.0303C8.61032 45.171 8.80109 45.25 9 45.25C9.19891 45.25 9.38968 45.171 9.53033 45.0303C9.67098 44.8897 9.75 44.6989 9.75 44.5V43C9.75 42.8011 9.67098 42.6103 9.53033 42.4697C9.38968 42.329 9.19891 42.25 9 42.25Z" fill="white"/>
</g>
<path d="M9 32V0" stroke="white"/>
<defs>
<clipPath id="clip0_10502_2592">
<rect width="18" height="18" fill="white" transform="translate(0 37)"/>
</clipPath>
</defs>
</svg>
